<svg width="93" height="344" viewBox="0 0 93 344" fill="none" xmlns="http://www.w3.org/2000/svg">
<g clip-path="url(#clip0_2_1145)">
<path d="M93 296.983L93 317.623C93.0007 317.991 92.8801 318.349 92.6567 318.642C92.4333 318.935 92.1196 319.147 91.7636 319.245L2.13351 343.933C1.88353 344.002 1.62099 344.012 1.36634 343.963C1.11168 343.914 0.871785 343.807 0.665324 343.651C0.458864 343.495 0.291414 343.293 0.176014 343.061C0.060615 342.83 0.000381085 342.575 3.24454e-06 342.316L3.42914e-06 326.836C-0.000306825 326.459 0.126563 326.093 0.360207 325.797C0.593851 325.5 0.92069 325.291 1.28816 325.202L68.2433 308.931C68.6119 308.843 68.94 308.634 69.1748 308.338C69.4095 308.041 69.5372 307.675 69.5372 307.297C69.5372 306.919 69.4095 306.552 69.1748 306.256C68.94 305.959 68.6119 305.751 68.2433 305.663L1.28816 289.495C0.921182 289.405 0.594918 289.196 0.361434 288.899C0.127951 288.603 0.000704586 288.238 3.89391e-06 287.861L4.07851e-06 272.381C-0.000504182 272.122 0.05908 271.866 0.1741 271.634C0.289119 271.402 0.456458 271.199 0.663037 271.042C0.869615 270.885 1.10984 270.778 1.36493 270.728C1.62002 270.679 1.88306 270.689 2.13351 270.758L91.7579 295.36C92.1144 295.458 92.4289 295.67 92.6533 295.963C92.8776 296.256 92.9994 296.614 93 296.983Z" fill="#39373A"/>
<path d="M91.3093 254.698L1.68495 254.698C1.23807 254.698 0.809499 254.521 0.49351 254.206C0.177521 253.891 1.47194e-08 253.464 2.00323e-08 253.018L1.97793e-07 238.112C2.00423e-07 237.891 0.0435827 237.672 0.128259 237.469C0.212936 237.265 0.337048 237.08 0.49351 236.924C0.649972 236.768 0.83572 236.644 1.04015 236.56C1.24457 236.475 1.46368 236.432 1.68495 236.432L91.3093 236.432C91.7567 236.432 92.1859 236.608 92.5028 236.923C92.8197 237.238 92.9985 237.665 93 238.112L93 253.018C92.9985 253.464 92.8197 253.892 92.5028 254.206C92.1859 254.521 91.7567 254.698 91.3093 254.698Z" fill="#39373A"/>
<path d="M92.0109 167.356L39.3116 191.803C38.9625 191.964 38.679 192.239 38.5083 192.582C38.3375 192.926 38.2899 193.317 38.3732 193.692C38.4564 194.066 38.6657 194.401 38.9661 194.64C39.2666 194.879 39.6401 195.009 40.0247 195.008L91.3093 195.008C91.7567 195.008 92.1859 195.184 92.5028 195.499C92.8197 195.814 92.9985 196.241 93 196.688L93 211.726C92.9985 212.172 92.8197 212.599 92.5028 212.914C92.1859 213.229 91.7567 213.406 91.3093 213.406L1.68495 213.406C1.23807 213.406 0.8095 213.229 0.493511 212.914C0.177522 212.599 6.47128e-07 212.172 6.52441e-07 211.726L8.94058e-07 191.464C-0.000281643 191.139 0.0941143 190.821 0.271733 190.548C0.449351 190.276 0.702556 190.06 1.00062 189.928L53.9069 166.496C54.2606 166.34 54.5498 166.068 54.7259 165.724C54.902 165.381 54.9544 164.988 54.8741 164.611C54.7939 164.234 54.5859 163.895 54.2852 163.653C53.9845 163.411 53.6093 163.279 53.2225 163.279L1.68495 163.279C1.23807 163.279 0.809501 163.102 0.493511 162.787C0.177522 162.472 1.24488e-06 162.045 1.25019e-06 161.6L1.42946e-06 146.567C-1.15331e-06 146.121 0.177336 145.693 0.493161 145.377C0.808986 145.061 1.23755 144.883 1.68495 144.881L91.3093 144.881C91.7577 144.881 92.1877 145.059 92.5048 145.375C92.8219 145.691 93 146.12 93 146.567L93 165.831C92.9984 166.153 92.9043 166.467 92.7291 166.737C92.5538 167.008 92.3046 167.222 92.0109 167.356Z" fill="#39373A"/>
<path d="M64.9828 85.0482L91.2922 85.0482C91.7396 85.0482 92.1687 85.225 92.4856 85.5398C92.8025 85.8547 92.9813 86.282 92.9829 86.728L92.9829 102.208C92.9829 102.655 92.8047 103.084 92.4877 103.4C92.1706 103.716 91.7406 103.894 91.2922 103.894L64.9828 103.894C64.7686 103.894 64.5562 103.932 64.356 104.008L2.3004 128.742C2.0453 128.842 1.76964 128.878 1.49731 128.847C1.22498 128.817 0.964217 128.721 0.737612 128.567C0.511008 128.414 0.325406 128.207 0.196896 127.966C0.0683859 127.725 0.000846528 127.456 0.000132698 127.182L0.000132877 112.161C-0.000568352 111.816 0.105627 111.478 0.304245 111.195C0.502862 110.912 0.784236 110.697 1.11001 110.579L41.4855 96.0103C41.8092 95.8917 42.0885 95.6769 42.2859 95.3949C42.4832 95.113 42.589 94.7774 42.589 94.4336C42.589 94.0898 42.4832 93.7543 42.2859 93.4724C42.0885 93.1904 41.8092 92.9756 41.4855 92.857L1.09276 77.635C0.771133 77.5146 0.494107 77.299 0.298819 77.0172C0.10353 76.7354 -0.000688159 76.4008 0.000133307 76.0583L0.000133491 60.6242C-0.00337178 60.3457 0.0626286 60.0707 0.192196 59.824C0.321762 59.5772 0.51083 59.3665 0.742385 59.2107C0.97394 59.0549 1.24072 58.9589 1.51871 58.9314C1.7967 58.9039 2.07718 58.9458 2.33491 59.0532L64.3502 84.9163C64.5506 85.0005 64.7654 85.0453 64.9828 85.0482Z" fill="#39373A"/>
<path d="M91.3093 42.5928L1.68495 42.5928C1.23807 42.5928 0.809499 42.4158 0.49351 42.1008C0.177521 41.7858 1.47197e-08 41.3585 2.00326e-08 40.9129L1.97792e-07 26.0063C2.03105e-07 25.5608 0.177521 25.1335 0.49351 24.8184C0.8095 24.5034 1.23807 24.3264 1.68495 24.3264L74.7588 24.3264C75.2057 24.3264 75.6343 24.1495 75.9503 23.8344C76.2663 23.5194 76.4438 23.0921 76.4438 22.6466L76.4438 1.66833C76.4438 1.22281 76.6213 0.795552 76.9373 0.480515C77.2533 0.165479 77.6819 -0.0115271 78.1287 -0.0115271L91.3208 -0.0115269C91.7682 -0.0115307 92.1974 0.165296 92.5143 0.480165C92.8312 0.795037 93.01 1.22228 93.0115 1.66833L93.0115 40.9129C93.0107 41.1348 92.9661 41.3543 92.8801 41.5589C92.794 41.7635 92.6684 41.9491 92.5102 42.1052C92.3521 42.2613 92.1646 42.3847 91.9585 42.4684C91.7524 42.552 91.5318 42.5943 91.3093 42.5928Z" fill="#39373A"/>
</g>
<defs>
<clipPath id="clip0_2_1145">
<rect width="344" height="93" fill="white" transform="translate(0 344) rotate(-90)"/>
</clipPath>
</defs>
</svg>
