<svg width="185" height="50" viewBox="0 0 185 50" fill="none" xmlns="http://www.w3.org/2000/svg">
<g clip-path="url(#clip0_2_5403)">
<path d="M25.2859 50H14.1859C13.9879 50.0004 13.7953 49.9355 13.6376 49.8154C13.48 49.6953 13.366 49.5266 13.3133 49.3353L0.0365067 1.14704C-0.000509212 1.01265 -0.00608803 0.871498 0.0202047 0.734587C0.0464974 0.597676 0.103952 0.468698 0.188094 0.357698C0.272236 0.246697 0.380795 0.15667 0.505316 0.0946276C0.629838 0.0325849 0.766961 0.000201061 0.906007 -2.08107e-06L9.23101 -2.08107e-06C9.43373 -0.000168887 9.63062 0.0680406 9.79001 0.193656C9.9494 0.319271 10.062 0.494991 10.1098 0.692553L18.8603 36.69C18.9074 36.8881 19.0198 37.0645 19.1792 37.1907C19.3387 37.317 19.5359 37.3856 19.739 37.3856C19.9421 37.3856 20.1394 37.317 20.2988 37.1907C20.4582 37.0645 20.5706 36.8881 20.6178 36.69L29.3128 0.692553C29.361 0.495255 29.4737 0.319844 29.633 0.194315C29.7923 0.0687865 29.9889 0.000374637 30.1915 -2.08107e-06L38.5165 -2.08107e-06C38.6558 -0.000275341 38.7933 0.0317592 38.9182 0.0935977C39.0431 0.155436 39.1521 0.245403 39.2366 0.356467C39.3211 0.467531 39.3788 0.596683 39.4052 0.733828C39.4317 0.870973 39.4262 1.0124 39.3891 1.14704L26.1585 49.3322C26.1059 49.5239 25.9921 49.693 25.8345 49.8136C25.6769 49.9342 25.4842 49.9997 25.2859 50Z" fill="#39373A"/>
<path d="M48.0259 49.091L48.0259 0.905887C48.0259 0.665631 48.1211 0.435215 48.2905 0.265328C48.4599 0.0954414 48.6897 0 48.9293 0L56.946 0C57.0646 0 57.1821 0.0234315 57.2917 0.0689565C57.4013 0.114482 57.5009 0.181209 57.5848 0.265328C57.6687 0.349447 57.7352 0.449312 57.7806 0.559219C57.826 0.669126 57.8494 0.786924 57.8494 0.905887V49.091C57.8494 49.3316 57.7543 49.5623 57.585 49.7327C57.4156 49.9031 57.1859 49.9992 56.946 50H48.9293C48.6894 49.9992 48.4596 49.9031 48.2903 49.7327C48.121 49.5623 48.0259 49.3316 48.0259 49.091Z" fill="#39373A"/>
<path d="M94.9977 49.4682L81.8504 21.1353C81.764 20.9476 81.616 20.7952 81.4313 20.7034C81.2465 20.6116 81.0359 20.5859 80.8346 20.6307C80.6333 20.6755 80.4533 20.788 80.3245 20.9495C80.1958 21.1111 80.126 21.3119 80.1268 21.5187V49.091C80.1268 49.3316 80.0317 49.5623 79.8624 49.7327C79.6931 49.9031 79.4633 49.9992 79.2234 50H71.1358C70.896 49.9992 70.6662 49.9031 70.4968 49.7327C70.3275 49.5623 70.2324 49.3316 70.2324 49.091V0.905891C70.2324 0.665635 70.3276 0.435219 70.497 0.265332C70.6665 0.0954455 70.8962 4.1547e-06 71.1358 4.1547e-06L82.0323 4.1547e-06C82.2072 -0.000147749 82.3784 0.0506027 82.5251 0.146097C82.6718 0.24159 82.7876 0.377722 82.8587 0.537971L95.4602 28.9822C95.5441 29.1724 95.6905 29.3279 95.8751 29.4225C96.0597 29.5172 96.2712 29.5454 96.474 29.5022C96.6769 29.4591 96.8587 29.3473 96.9891 29.1856C97.1195 29.0239 97.1904 28.8222 97.19 28.6143V0.905891C97.19 0.665635 97.2852 0.435219 97.4546 0.265332C97.624 0.0954455 97.8538 4.1547e-06 98.0934 4.1547e-06L106.178 4.1547e-06C106.418 2.76326e-06 106.648 0.0953453 106.818 0.265144C106.988 0.434942 107.084 0.665351 107.084 0.905891V49.091C107.084 49.3321 106.989 49.5633 106.819 49.7338C106.649 49.9042 106.418 50 106.178 50H95.8179C95.6448 49.9991 95.4756 49.9486 95.3303 49.8543C95.185 49.7601 95.0696 49.6261 94.9977 49.4682Z" fill="#39373A"/>
<path d="M139.262 34.937V49.0818C139.262 49.3223 139.167 49.5531 138.997 49.7234C138.828 49.8938 138.598 49.99 138.358 49.9908H130.033C129.793 49.9908 129.562 49.895 129.392 49.7245C129.222 49.5541 129.127 49.3229 129.127 49.0818V34.937C129.127 34.8218 129.106 34.7076 129.065 34.6L115.764 1.23675C115.71 1.0996 115.69 0.951394 115.707 0.804983C115.723 0.658571 115.775 0.518373 115.858 0.396543C115.94 0.274713 116.051 0.174926 116.181 0.105835C116.311 0.0367437 116.455 0.000432226 116.602 4.84439e-05L124.681 4.84439e-05C124.866 -0.000328563 125.048 0.056766 125.2 0.163549C125.352 0.270333 125.468 0.421609 125.532 0.596759L133.366 22.304C133.43 22.478 133.546 22.6282 133.697 22.7343C133.849 22.8404 134.029 22.8973 134.214 22.8973C134.399 22.8973 134.58 22.8404 134.731 22.7343C134.883 22.6282 134.998 22.478 135.062 22.304L143.248 0.587484C143.313 0.414564 143.429 0.265626 143.581 0.160632C143.732 0.0556382 143.912 -0.000393203 144.096 4.84439e-05L152.397 4.84439e-05C152.546 -0.00183611 152.694 0.033648 152.827 0.103308C152.96 0.172967 153.073 0.274617 153.157 0.399108C153.241 0.5236 153.292 0.667028 153.307 0.816485C153.322 0.965942 153.299 1.11674 153.241 1.2553L139.333 34.5969C139.287 34.7046 139.263 34.8201 139.262 34.937Z" fill="#39373A"/>
<path d="M162.094 49.091V0.905894C162.094 0.665638 162.189 0.435222 162.358 0.265336C162.528 0.095449 162.758 7.62939e-06 162.997 7.62939e-06L171.014 7.62939e-06C171.253 7.62939e-06 171.483 0.095449 171.653 0.265336C171.822 0.435222 171.917 0.665638 171.917 0.905894V40.1929C171.917 40.4332 172.012 40.6636 172.182 40.8335C172.351 41.0034 172.581 41.0988 172.821 41.0988H184.103C184.342 41.0988 184.572 41.1943 184.741 41.3641C184.911 41.534 185.006 41.7645 185.006 42.0047V49.0972C185.006 49.3378 184.911 49.5685 184.742 49.7389C184.572 49.9092 184.342 50.0054 184.103 50.0062H162.997C162.878 50.0058 162.76 49.9818 162.65 49.9355C162.54 49.8893 162.44 49.8217 162.356 49.7367C162.272 49.6517 162.206 49.5509 162.161 49.4401C162.116 49.3293 162.093 49.2107 162.094 49.091Z" fill="#39373A"/>
</g>
<defs>
<clipPath id="clip0_2_5403">
<rect width="185" height="50" fill="white"/>
</clipPath>
</defs>
</svg>
