<svg width="26" height="26" viewBox="0 0 26 26" fill="none" xmlns="http://www.w3.org/2000/svg">
<g clip-path="url(#clip0_10_834)">
<path d="M7.6323 22.318C7.64324 22.3243 7.65331 22.3302 7.6629 22.336C7.65207 22.3311 7.64181 22.3251 7.6323 22.318Z" fill="white"/>
<path fill-rule="evenodd" clip-rule="evenodd" d="M0 13C0 5.8201 5.8201 0 13 0C20.1799 0 26 5.8201 26 13C26 20.1799 20.1799 26 13 26C5.8201 26 0 20.1799 0 13ZM12.1927 24.9791C12.649 25.0038 13.0407 25.0224 13.3601 24.9791L14.3654 24.8872C14.3654 24.8872 13.9971 24.8664 13.3545 24.8283C13.0711 24.8321 12.7424 24.7792 12.373 24.7198C12.3198 24.7113 12.2658 24.7026 12.2109 24.6939C12.123 24.6786 12.0323 24.6657 11.9394 24.6524C11.8037 24.633 11.6632 24.6129 11.5202 24.5839C11.3987 24.5521 11.2732 24.5188 11.1447 24.4847C11.021 24.4519 10.8945 24.4183 10.7657 24.3845C10.3955 24.3104 10.0248 24.1684 9.63764 24.0202C9.46838 23.9554 9.29597 23.8894 9.11907 23.8273C8.92713 23.7617 8.7443 23.6643 8.56011 23.5661C8.4632 23.5145 8.3659 23.4627 8.2667 23.4152C8.18892 23.3737 8.10924 23.3339 8.029 23.2938C7.82492 23.1919 7.61719 23.0881 7.42777 22.9506C7.5713 23.0389 7.7199 23.1186 7.8728 23.1894C7.96569 23.2336 8.05858 23.2743 8.15129 23.315C8.18487 23.3297 8.21844 23.3444 8.25197 23.3593C8.3568 23.4017 8.45898 23.4475 8.56013 23.4928C8.74747 23.5768 8.93131 23.6592 9.1221 23.7155C9.2336 23.7491 9.34351 23.7834 9.45204 23.8173C9.89691 23.9561 10.3185 24.0877 10.7306 24.1375C10.9846 24.1839 11.2259 24.2246 11.4578 24.2632C11.6286 24.2803 11.7943 24.2874 11.9526 24.2943C12.0112 24.2968 12.0687 24.2993 12.1251 24.3022C12.1494 24.3035 12.1736 24.3048 12.1976 24.3061C12.5911 24.3276 12.9327 24.3463 13.2158 24.3091C13.8151 24.2606 14.1618 24.232 14.1618 24.232C14.1618 24.232 13.8255 24.2095 13.2375 24.1735C12.9928 24.1735 12.7106 24.1278 12.3961 24.0769C12.3279 24.0659 12.2582 24.0546 12.1871 24.0435C12.1184 24.031 12.0477 24.0197 11.9753 24.0082C11.8365 23.986 11.6917 23.9629 11.5436 23.9287C11.477 23.9101 11.4083 23.8926 11.3384 23.8748C11.2873 23.8617 11.2356 23.8485 11.1835 23.8346C11.0712 23.803 10.9551 23.7705 10.8368 23.7406C10.5517 23.676 10.2631 23.5694 9.96537 23.4594C9.7487 23.3727 9.52207 23.2834 9.29543 23.1994C9.10666 23.1312 8.92709 23.0349 8.74465 22.9371C8.69968 22.913 8.65453 22.8887 8.60903 22.8648L8.49463 22.8094C8.41113 22.7628 8.32607 22.7194 8.24084 22.6758C8.1244 22.6162 8.00762 22.5565 7.89403 22.4887C7.8214 22.4484 7.75214 22.4023 7.6869 22.3509C7.67908 22.3459 7.67117 22.341 7.6629 22.336L7.6674 22.3379C7.8198 22.436 7.9791 22.5229 8.14407 22.5979C8.26583 22.6542 8.385 22.7067 8.50373 22.7578C8.60112 22.7971 8.69618 22.8398 8.79039 22.8822C8.96906 22.9624 9.14462 23.0413 9.32707 23.0932C9.42301 23.1222 9.51767 23.1516 9.6112 23.1807C10.0225 23.3085 10.4119 23.4295 10.7922 23.4771C11.0236 23.5196 11.2424 23.5586 11.4508 23.592C11.5953 23.6081 11.7354 23.6145 11.8687 23.6206C11.9321 23.6235 11.994 23.6263 12.054 23.6301C12.4531 23.6578 12.7972 23.6769 13.0758 23.6457C13.6409 23.6006 13.9581 23.5764 13.9581 23.5764C13.9581 23.5764 13.6552 23.5543 13.1196 23.517C12.9002 23.5135 12.6469 23.4712 12.3639 23.4239C12.3004 23.4133 12.2353 23.4025 12.1689 23.3918C12.1136 23.3816 12.0573 23.3719 12 23.3621C11.8614 23.3382 11.7169 23.3133 11.567 23.2787L11.2342 23.1829C11.1626 23.1638 11.0931 23.1439 11.0219 23.1236C10.9848 23.113 10.9473 23.1023 10.9087 23.0915C10.6315 23.0205 10.3598 22.9294 10.0958 22.8189L10.0834 22.8139C9.88425 22.7327 9.68319 22.6509 9.47007 22.5715C9.3054 22.5101 9.14719 22.4242 8.98698 22.3372C8.93554 22.3093 8.8839 22.2812 8.83177 22.2538C8.80988 22.2417 8.78783 22.2309 8.7662 22.2202C8.7523 22.2134 8.73857 22.2066 8.72517 22.1997C8.66449 22.1669 8.60355 22.1353 8.54253 22.1036C8.41616 22.038 8.28951 21.9723 8.16443 21.8963C8.09803 21.8567 8.03393 21.8133 7.97247 21.7663C7.94645 21.7515 7.92171 21.7344 7.89769 21.7178C7.89371 21.715 7.88975 21.7123 7.8858 21.7096C7.89505 21.7154 7.90484 21.7212 7.91484 21.7271C7.93155 21.7369 7.94883 21.7471 7.9651 21.7585C8.11049 21.8491 8.26161 21.9302 8.4175 22.0012C8.52757 22.0532 8.63893 22.1043 8.75377 22.1524C8.83573 22.1867 8.91631 22.2229 8.99625 22.2588C9.17411 22.3386 9.34875 22.417 9.52813 22.4696C9.6208 22.4975 9.7122 22.5258 9.80249 22.5539C10.1665 22.6669 10.5123 22.7743 10.8498 22.8163C11.0561 22.8553 11.2532 22.8913 11.4426 22.9229C11.5547 22.9358 11.6661 22.9417 11.774 22.9473C11.8467 22.9511 11.9178 22.9548 11.9864 22.9606C12.3578 22.9857 12.6754 23.007 12.9354 22.9814L13.7536 22.9225C13.7536 22.9225 13.4819 22.8991 13 22.8596C12.7939 22.8544 12.5513 22.8107 12.2811 22.7621C12.2359 22.754 12.19 22.7457 12.1433 22.7374C12.1125 22.7318 12.0814 22.7262 12.0499 22.7205C11.9025 22.6941 11.7475 22.6663 11.5908 22.6252C11.5122 22.6029 11.4324 22.5793 11.3509 22.5552C11.3263 22.548 11.3016 22.5407 11.2766 22.5333C11.1791 22.5065 11.0808 22.477 10.9807 22.4467C10.7217 22.3776 10.4679 22.2905 10.221 22.1862C10.1482 22.1569 10.0745 22.1264 9.99971 22.0955C9.88354 22.0476 9.76466 21.9985 9.6421 21.9505C9.48919 21.8907 9.34277 21.8091 9.19375 21.7261C9.1464 21.6997 9.09877 21.6732 9.0506 21.6472C9.03384 21.6372 9.01675 21.6284 9.00007 21.6199C8.98396 21.6116 8.96822 21.6035 8.95353 21.5947C8.88773 21.5579 8.82057 21.5221 8.75311 21.4861C8.64596 21.429 8.53803 21.3715 8.43353 21.3087C8.38536 21.2809 8.33746 21.2464 8.2907 21.2128C8.27857 21.2041 8.26652 21.1954 8.25457 21.187L8.1471 21.1137C8.17096 21.1295 8.19326 21.1426 8.21587 21.1558C8.23104 21.1646 8.24636 21.1736 8.26237 21.1835C8.40017 21.2702 8.54273 21.3421 8.68357 21.4123C8.74181 21.4399 8.79954 21.4657 8.85669 21.4912C8.90456 21.5126 8.95202 21.5338 8.99903 21.5557C9.07798 21.5879 9.15514 21.6217 9.2315 21.6551C9.39865 21.7282 9.56196 21.7996 9.7318 21.8495C9.81222 21.874 9.89162 21.8988 9.97012 21.9234C10.2956 22.0252 10.6054 22.1222 10.9074 22.1637C10.9626 22.1734 11.0177 22.1837 11.0723 22.1939C11.1973 22.2172 11.3199 22.2401 11.4357 22.2551C11.5483 22.2698 11.66 22.2757 11.7666 22.2814C11.8175 22.2841 11.8672 22.2867 11.9154 22.2902L11.956 22.2934C12.2825 22.3185 12.561 22.34 12.7924 22.3167L13.5464 22.2634C13.5464 22.2634 13.3016 22.24 12.8774 22.2014C12.7088 22.1932 12.5133 22.1579 12.2965 22.1187C12.238 22.1081 12.1779 22.0972 12.1164 22.0866L12.0919 22.0814C11.937 22.0488 11.7768 22.0151 11.6073 21.9739C11.5145 21.9436 11.4179 21.9128 11.3174 21.8816C11.3068 21.8784 11.2961 21.8753 11.2854 21.8721C11.2064 21.8486 11.1247 21.8243 11.0431 21.7984C10.8062 21.7276 10.5737 21.6431 10.3467 21.5453C10.2891 21.5205 10.232 21.4954 10.1745 21.4702C10.0565 21.4183 9.93748 21.366 9.8124 21.3152C9.6675 21.2565 9.52971 21.1785 9.38733 21.0979C9.34704 21.0751 9.30639 21.0521 9.2651 21.0292C9.25039 21.0209 9.23451 21.0126 9.21861 21.0043C9.20406 20.9968 9.1895 20.9892 9.17583 20.9816C9.12595 20.9532 9.07597 20.9255 9.02597 20.8978C8.917 20.8374 8.80788 20.7769 8.69917 20.7094C8.64457 20.6761 8.58823 20.6358 8.5332 20.5955L8.52903 20.5926C8.48525 20.5623 8.43989 20.5309 8.39453 20.5023C8.40467 20.5083 8.41603 20.5155 8.42778 20.5229C8.43312 20.5263 8.43852 20.5297 8.44393 20.5331C8.47087 20.5473 8.49781 20.5627 8.52474 20.578C8.53551 20.5841 8.54627 20.5903 8.55703 20.5963C8.68364 20.6751 8.81489 20.7462 8.95007 20.8091C9.04973 20.8563 9.15113 20.9027 9.24863 20.946C9.31323 20.9732 9.37716 21.0013 9.44065 21.0292C9.60503 21.1014 9.76654 21.1723 9.9294 21.2229C10.0206 21.2493 10.1103 21.2768 10.1987 21.304C10.4633 21.3853 10.7166 21.463 10.9638 21.4955C11.051 21.5111 11.1356 21.5274 11.2185 21.5434C11.2879 21.5568 11.3561 21.5699 11.4235 21.5822C11.5261 21.5951 11.626 21.6003 11.7219 21.6053C11.7645 21.6075 11.8064 21.6097 11.8473 21.6125L11.8529 21.613C12.1608 21.6396 12.4315 21.6631 12.6468 21.6437C13.0884 21.6225 13.3445 21.6077 13.3445 21.6077C13.3445 21.6077 13.133 21.5839 12.7586 21.5432C12.5933 21.5332 12.3969 21.4942 12.1749 21.4501C12.1467 21.4445 12.1181 21.4388 12.0891 21.4331C11.9457 21.4036 11.7901 21.3681 11.632 21.3217C11.5987 21.3107 11.5647 21.2991 11.5303 21.2873C11.4755 21.2686 11.4195 21.2494 11.3633 21.2316C11.2823 21.2069 11.1973 21.1805 11.1128 21.1506C10.9623 21.1063 10.8082 21.0435 10.6502 20.9791C10.5918 20.9553 10.5328 20.9313 10.4732 20.9079C10.3988 20.8751 10.3234 20.841 10.2469 20.8063C10.1627 20.7682 10.0771 20.7294 9.99007 20.6912C9.81705 20.6117 9.64891 20.522 9.48653 20.4226C9.45837 20.4065 9.42977 20.3909 9.4029 20.3766C9.33414 20.3338 9.26338 20.2931 9.19198 20.2521C9.11805 20.2095 9.04341 20.1666 8.96957 20.1205C8.91843 20.0867 8.8673 20.0529 8.81877 20.0139L8.64977 19.8952C8.66148 19.9027 8.67241 19.9102 8.68322 19.9176C8.70358 19.9316 8.72348 19.9453 8.74727 19.958C8.78367 19.9775 8.81963 19.9988 8.85343 20.0209C8.9752 20.0928 9.09653 20.1569 9.2222 20.2167C9.2806 20.2469 9.34005 20.2739 9.39922 20.3007C9.43269 20.3159 9.46606 20.3311 9.4991 20.3467C9.54494 20.366 9.59052 20.3856 9.63592 20.4052C9.80255 20.4768 9.96679 20.5474 10.1326 20.5985C10.1921 20.6165 10.2508 20.6346 10.3088 20.6526C10.5561 20.7293 10.7912 20.8022 11.0236 20.8373C11.0379 20.8402 11.0522 20.8431 11.0664 20.846C11.1875 20.8709 11.3072 20.8955 11.4192 20.9114C11.5119 20.9245 11.6026 20.9303 11.6881 20.9358C11.7182 20.9377 11.7476 20.9396 11.7763 20.9417C11.7964 20.9436 11.8163 20.9455 11.8361 20.9475C12.096 20.9725 12.3221 20.9943 12.5082 20.9798C12.9086 20.9655 13.1417 20.9547 13.1417 20.9547L12.6421 20.8867C12.4479 20.8643 12.2553 20.8301 12.0653 20.7844C11.9336 20.7519 11.7953 20.7142 11.6467 20.6709C11.57 20.6423 11.4872 20.6141 11.4045 20.5864C11.3308 20.5608 11.2563 20.5335 11.1791 20.5045C10.9813 20.437 10.7874 20.3589 10.598 20.2705C10.5259 20.2363 10.4526 20.2021 10.3786 20.1675C10.306 20.1336 10.2327 20.0994 10.1591 20.0646C10.0023 19.9891 9.85035 19.904 9.70407 19.8098C9.67777 19.7981 9.65242 19.7843 9.62823 19.7687C9.58881 19.7449 9.54886 19.7214 9.50871 19.6977C9.41648 19.6435 9.32317 19.5885 9.2326 19.5282C9.18518 19.4979 9.13947 19.4651 9.09567 19.4298C9.0337 19.3821 8.97433 19.3388 8.91063 19.2955C8.94734 19.3205 8.98549 19.3444 9.02367 19.3684C9.03236 19.3738 9.04105 19.3793 9.04973 19.3847C9.07963 19.4021 9.11387 19.4207 9.1481 19.4389C9.2546 19.504 9.36976 19.5629 9.47991 19.6192L9.48827 19.6235C9.57233 19.6651 9.65813 19.705 9.74133 19.7431C9.78958 19.7631 9.83732 19.7833 9.88467 19.8034C10.0351 19.8671 10.1814 19.9291 10.3268 19.9775C10.3958 19.9973 10.4633 20.0176 10.5297 20.0375C10.7181 20.094 10.8975 20.1479 11.076 20.1799C11.1391 20.1912 11.2009 20.2036 11.2613 20.2157C11.3096 20.2254 11.357 20.2349 11.4036 20.2436C11.4848 20.2526 11.563 20.258 11.6377 20.2632C11.6602 20.2647 11.6824 20.2663 11.7043 20.2679C11.9591 20.2982 12.1797 20.3242 12.3626 20.3138C12.7222 20.3086 12.9324 20.3004 12.9324 20.3004C12.9324 20.3004 12.7838 20.2739 12.5181 20.2306C12.4159 20.2183 12.2992 20.19 12.167 20.158C12.1266 20.1482 12.0848 20.138 12.0415 20.1279C11.9165 20.0978 11.7934 20.0605 11.6727 20.0161C11.6451 20.0058 11.6171 19.9951 11.5885 19.9842C11.5439 19.9671 11.4978 19.9495 11.45 19.932C11.3908 19.914 11.3299 19.89 11.2692 19.866C11.2627 19.8635 11.2562 19.8609 11.2498 19.8584C11.1342 19.818 11.0191 19.7652 10.8995 19.7103C10.8432 19.6845 10.7859 19.6582 10.7272 19.6326C10.6015 19.568 10.4702 19.5009 10.3346 19.438C10.2077 19.3754 10.0875 19.301 9.96187 19.2233C9.94851 19.215 9.93509 19.2067 9.9216 19.1984C9.91182 19.191 9.89954 19.1836 9.88725 19.1763C9.87666 19.17 9.86606 19.1636 9.85703 19.1572C9.80917 19.1264 9.76065 19.0968 9.71201 19.0671C9.64176 19.0242 9.57127 18.9812 9.50213 18.9341C9.48266 18.9201 9.46375 18.9058 9.44471 18.8914C9.42307 18.875 9.40125 18.8586 9.3782 18.8422C9.31277 18.7924 9.24343 18.7417 9.17583 18.6936C9.23433 18.7321 9.29283 18.7698 9.3535 18.8062L9.36574 18.8135C9.39167 18.8289 9.41792 18.8446 9.4445 18.8595C9.54677 18.9185 9.65337 18.9739 9.75823 19.0268C9.83623 19.0658 9.9125 19.1035 9.9931 19.1364C10.1685 19.2167 10.3478 19.288 10.5304 19.3501C10.7296 19.4165 10.9321 19.4727 11.1371 19.5182C11.1591 19.5229 11.1812 19.5277 11.2033 19.5326C11.2715 19.5475 11.3393 19.5623 11.4001 19.5715C11.4459 19.5784 11.4916 19.5826 11.5361 19.5867C11.57 19.5899 11.6031 19.5929 11.635 19.5971C11.6681 19.6012 11.7005 19.6054 11.7321 19.6094C11.9215 19.6338 12.0843 19.6548 12.2217 19.6499C12.5415 19.6495 12.7287 19.6439 12.7287 19.6439C12.7287 19.6439 12.61 19.6153 12.4016 19.5719C12.3218 19.5587 12.231 19.5348 12.129 19.5079C12.0937 19.4986 12.057 19.4889 12.0189 19.4792C11.9188 19.448 11.8088 19.4099 11.6926 19.3639C11.6428 19.3411 11.5907 19.3203 11.5362 19.2985C11.5233 19.2934 11.5103 19.2882 11.4972 19.2829C11.4602 19.2704 11.4224 19.2546 11.3839 19.2385C11.3624 19.2296 11.3407 19.2205 11.3187 19.2118C11.2187 19.1722 11.1167 19.1217 11.0117 19.0697C10.9615 19.0449 10.9106 19.0197 10.8589 18.9952C10.7522 18.9396 10.6413 18.8797 10.5319 18.8208L10.5122 18.8101C10.3865 18.7433 10.2647 18.6694 10.1474 18.5887C10.1437 18.5866 10.14 18.5845 10.1364 18.5825C10.119 18.5726 10.1021 18.563 10.0867 18.5523C10.0524 18.5294 10.0178 18.5067 9.98314 18.4839C9.91353 18.4382 9.84354 18.3922 9.7747 18.3439C9.75598 18.3305 9.73832 18.3164 9.72073 18.3024C9.70289 18.2882 9.68512 18.274 9.66637 18.2607C9.65471 18.2516 9.64306 18.2424 9.6314 18.2333C9.57374 18.1881 9.51582 18.1428 9.4549 18.0977C9.5212 18.1437 9.5927 18.1922 9.66203 18.2355C9.6889 18.2477 9.7149 18.2607 9.74567 18.2789C9.83883 18.3309 9.9359 18.3842 10.0312 18.4305C10.1005 18.4684 10.1717 18.5027 10.2444 18.5332C10.4126 18.6091 10.5725 18.6784 10.7363 18.7274C10.7665 18.7364 10.7961 18.7454 10.8254 18.7542C10.9549 18.7934 11.0762 18.8301 11.1982 18.8574C11.2641 18.8738 11.3282 18.8873 11.3941 18.9007C11.4439 18.9077 11.4954 18.9132 11.5446 18.9184C11.5532 18.9193 11.5616 18.9202 11.57 18.9211C11.7385 18.9548 11.9096 18.9745 12.0813 18.98C12.3634 18.9878 12.5255 18.9878 12.5255 18.9878L12.2815 18.9141C12.2288 18.9016 12.1678 18.882 12.1 18.8602C12.067 18.8496 12.0324 18.8385 11.9964 18.8275C11.9102 18.7971 11.8174 18.7568 11.7186 18.7105C11.6886 18.6979 11.6592 18.6848 11.6292 18.6713C11.6013 18.6588 11.5728 18.6461 11.5427 18.6333C11.5195 18.6233 11.4959 18.6125 11.4715 18.6015C11.4455 18.5896 11.4186 18.5774 11.3906 18.5653C11.3167 18.5308 11.2415 18.4907 11.1638 18.4492C11.1059 18.4182 11.0466 18.3866 10.9854 18.356C10.9491 18.3349 10.9127 18.3142 10.8758 18.2933C10.8141 18.2583 10.7511 18.2225 10.6847 18.1827C10.5785 18.119 10.4706 18.0505 10.364 17.9764C10.3552 17.9709 10.3466 17.9642 10.3384 17.9579C10.3305 17.9518 10.323 17.946 10.3159 17.9417C10.286 17.9207 10.2556 17.8997 10.2248 17.8784C10.165 17.8371 10.1039 17.795 10.0429 17.7498C10.0135 17.7246 9.98183 17.6999 9.9502 17.6761C9.90645 17.6379 9.86096 17.6021 9.81505 17.5659C9.78865 17.5452 9.76212 17.5243 9.7357 17.5028C9.76244 17.5207 9.78864 17.5386 9.81449 17.5562C9.86487 17.5906 9.91394 17.6241 9.9632 17.6553C10.0104 17.6805 10.0573 17.7051 10.1037 17.7294C10.1706 17.7644 10.2365 17.799 10.3012 17.8343C10.5062 17.9392 10.7187 18.0287 10.9369 18.1021C10.967 18.1109 10.9967 18.1196 11.026 18.1283C11.197 18.1788 11.3533 18.2249 11.5002 18.249C11.5499 18.2571 11.5974 18.2659 11.6427 18.2742C11.7546 18.2949 11.8533 18.3131 11.9375 18.3131C12.1832 18.3291 12.3197 18.3291 12.3197 18.3291C12.3197 18.3291 12.1962 18.2667 11.973 18.171C11.9154 18.1498 11.8555 18.1165 11.7911 18.0808C11.7291 18.0464 11.6628 18.0096 11.5904 17.979C11.5041 17.9426 11.4151 17.8905 11.3215 17.8356C11.2549 17.7966 11.1858 17.7561 11.1137 17.719C11.0931 17.7056 11.0724 17.6922 11.0515 17.6786C10.9021 17.5816 10.7448 17.4794 10.5855 17.3619C10.4975 17.2982 10.4035 17.228 10.312 17.1561C10.2477 17.0981 10.1805 17.0424 10.1123 16.986C10.0879 16.9657 10.0632 16.9453 10.0386 16.9247C9.85423 16.7592 9.6785 16.5843 9.5121 16.4008C9.48105 16.363 9.4449 16.3236 9.4092 16.2846C9.35722 16.2278 9.30622 16.1721 9.27333 16.1243L9.02807 15.7946C8.94779 15.6943 8.87535 15.5879 8.8114 15.4765C8.78526 15.4315 8.75628 15.3882 8.72722 15.3449C8.68833 15.287 8.64932 15.2288 8.61683 15.1658C8.5748 15.0746 8.52689 14.9876 8.4796 14.9017C8.40648 14.7689 8.33485 14.6389 8.2888 14.5002C8.26762 14.4529 8.24817 14.4052 8.22894 14.3582C8.20292 14.2944 8.17731 14.2317 8.1484 14.1722C8.13348 14.1255 8.11848 14.08 8.10379 14.0354C8.08222 13.97 8.06131 13.9065 8.04223 13.8441C7.99084 13.7077 7.95765 13.571 7.92568 13.4393C7.90831 13.3678 7.8913 13.2978 7.87193 13.2301C7.83686 13.1075 7.81657 12.9889 7.79749 12.8774C7.78663 12.8139 7.77617 12.7528 7.7636 12.6945C7.73613 12.555 7.71731 12.4139 7.70727 12.272C7.67953 12.0354 7.6596 11.8933 7.6596 11.8933C7.6596 11.8933 7.61887 12.0246 7.56037 12.2633C7.5215 12.407 7.49625 12.5539 7.48497 12.7023C7.48135 12.7445 7.47621 12.7887 7.47088 12.8346C7.4551 12.9703 7.43757 13.1211 7.45247 13.2791C7.45397 13.3222 7.45489 13.3663 7.45584 13.4113C7.45952 13.5872 7.46349 13.7764 7.50317 13.9672C7.5257 14.0881 7.54867 14.2155 7.56687 14.3433C7.58598 14.4189 7.60911 14.4929 7.63246 14.5676C7.64511 14.6081 7.65782 14.6487 7.67 14.69C7.65874 14.6684 7.64876 14.6461 7.6401 14.6233C7.605 14.5314 7.56817 14.4426 7.5309 14.3559C7.5129 14.2992 7.49447 14.2427 7.47622 14.1869C7.45362 14.1176 7.43129 14.0493 7.41043 13.9824C7.3866 13.9113 7.36493 13.8411 7.34717 13.7722C7.31955 13.6692 7.29654 13.5684 7.27402 13.4697C7.25874 13.4027 7.24368 13.3367 7.22757 13.2717C7.2033 13.1794 7.1877 13.0854 7.17297 12.9952C7.15563 12.8778 7.1383 12.7556 7.12443 12.6538C7.11057 12.5519 7.09843 12.4575 7.0902 12.3756C7.08407 12.3146 7.08034 12.256 7.07687 12.2014C7.07568 12.1827 7.07452 12.1645 7.0733 12.1468C7.0655 12.0358 7.05857 11.9388 7.0525 11.8625C7.0434 11.7754 7.0395 11.7195 7.0395 11.7117C7.04297 11.6944 7.03083 11.7264 7.00873 11.8083C6.99912 11.8318 6.99201 11.8562 6.9875 11.8811C6.97947 11.9059 6.97116 11.9363 6.96075 11.9744C6.95824 11.9836 6.95561 11.9932 6.95283 12.0033C6.95039 12.0123 6.94785 12.0216 6.94525 12.0311C6.92705 12.0976 6.90554 12.1761 6.89 12.2633C6.87276 12.3498 6.86219 12.4374 6.85837 12.5255C6.85411 12.5699 6.84805 12.6164 6.84174 12.6648C6.83456 12.7198 6.82707 12.7773 6.82153 12.8371C6.80945 12.9509 6.8051 13.0654 6.80853 13.1798C6.812 13.3029 6.812 13.429 6.812 13.559C6.81918 13.6965 6.83365 13.8334 6.85533 13.9694C6.8744 14.1072 6.89563 14.2502 6.92077 14.3984C6.95062 14.535 6.98993 14.6692 7.03065 14.8083C7.03604 14.8267 7.04145 14.8452 7.04687 14.8638C7.04926 14.8747 7.05297 14.8853 7.05688 14.8965C7.05933 14.9035 7.06186 14.9107 7.0642 14.9184C7.05423 14.8919 7.046 14.872 7.03387 14.8486C7.02909 14.8355 7.02433 14.8223 7.01957 14.8092C6.98682 14.7189 6.95427 14.6292 6.91643 14.5414C6.87478 14.4197 6.83695 14.2988 6.79967 14.1795C6.79351 14.1598 6.78737 14.1402 6.78123 14.1206C6.7561 14.04 6.73357 13.9633 6.7158 13.8831C6.66465 13.6909 6.62524 13.5037 6.58767 13.3252L6.5858 13.3163C6.56413 13.2106 6.5442 13.1023 6.53207 13.0026C6.52318 12.9384 6.51608 12.8757 6.50915 12.8144C6.50121 12.7442 6.49348 12.676 6.48353 12.6096C6.47942 12.5673 6.47519 12.5261 6.47105 12.4859C6.46387 12.416 6.45697 12.3489 6.45147 12.2837C6.44627 12.1905 6.4428 12.1034 6.4428 12.0237C6.43587 11.8963 6.43067 11.7897 6.43067 11.703C6.42319 11.644 6.42073 11.5844 6.4233 11.5249C6.42763 11.4959 6.4207 11.5128 6.40077 11.5709C6.39959 11.5647 6.3978 11.5701 6.39365 11.5828C6.39169 11.5888 6.38922 11.5964 6.38603 11.6051C6.37694 11.63 6.36677 11.6707 6.35256 11.7277C6.35119 11.7332 6.34978 11.7388 6.34833 11.7446C6.31594 11.8463 6.28989 11.95 6.27033 12.0549C6.24754 12.1486 6.23132 12.2437 6.2218 12.3396C6.21622 12.391 6.20908 12.445 6.20171 12.5006C6.19362 12.5616 6.18527 12.6247 6.17847 12.6884C6.16516 12.8166 6.15851 12.9453 6.15853 13.0741C6.1542 13.2084 6.1555 13.3506 6.15853 13.4992C6.16339 13.6525 6.17641 13.8054 6.19753 13.9572L6.20276 13.9956C6.22309 14.1449 6.24342 14.2942 6.26817 14.4486C6.29556 14.5877 6.3346 14.7302 6.37436 14.8755C6.38492 14.914 6.39552 14.9527 6.40597 14.9916C6.41253 15.0186 6.42197 15.0461 6.43151 15.074C6.43897 15.0958 6.44649 15.1177 6.45277 15.1398C6.4428 15.1155 6.43283 15.0913 6.42287 15.0661C6.39472 14.9956 6.36881 14.9263 6.34311 14.8574C6.32646 14.8129 6.3099 14.7685 6.29287 14.7242C6.2413 14.5626 6.1919 14.407 6.14597 14.2519C6.11737 14.1631 6.09353 14.0764 6.07403 13.9897C6.019 13.7722 5.9774 13.5581 5.941 13.3545C5.91847 13.2344 5.89897 13.1179 5.8799 13.0017C5.87385 12.9424 5.86851 12.8836 5.86326 12.8259C5.85498 12.7348 5.84691 12.646 5.83657 12.5606C5.82443 12.4306 5.81533 12.3062 5.81013 12.1892C5.80934 12.151 5.80826 12.1132 5.8072 12.0764C5.80537 12.0128 5.80363 11.9521 5.80363 11.8972C5.8032 11.8777 5.80275 11.8585 5.80231 11.8396C5.79965 11.7258 5.79725 11.6235 5.8006 11.5388C5.79704 11.4731 5.79704 11.4073 5.8006 11.3416C5.81143 11.2953 5.80407 11.2944 5.7915 11.3312C5.79367 11.3039 5.78933 11.3061 5.78327 11.3312C5.77987 11.3453 5.77349 11.3672 5.76472 11.3974C5.75783 11.4211 5.74947 11.4498 5.73993 11.4838C5.73291 11.5106 5.72418 11.5401 5.71471 11.5721C5.69205 11.6486 5.6651 11.7397 5.64677 11.8439C5.62128 11.9478 5.60175 12.0532 5.58827 12.1593C5.58252 12.2074 5.57489 12.2568 5.56706 12.3076C5.55539 12.3832 5.54327 12.4617 5.53627 12.5428C5.53558 12.5508 5.53488 12.5588 5.53419 12.5669C5.52307 12.6953 5.51139 12.8303 5.50853 12.9714C5.5055 13.1213 5.5055 13.2756 5.5055 13.4411C5.51104 13.6125 5.5255 13.7835 5.54883 13.9533C5.5692 14.131 5.59 14.3121 5.6199 14.4954C5.6602 14.7039 5.71393 14.9114 5.772 15.1229C5.79309 15.1957 5.81733 15.2692 5.84096 15.3409L5.84437 15.3513C5.83665 15.3373 5.83056 15.3222 5.82416 15.3062C5.8212 15.2988 5.81818 15.2913 5.8149 15.2837C5.7694 15.1576 5.7226 15.0319 5.67667 14.9106C5.6186 14.7342 5.56357 14.5609 5.5159 14.3875C5.48903 14.2922 5.46433 14.196 5.44007 14.1002C5.38027 13.8567 5.33867 13.6205 5.29967 13.3969C5.27627 13.2623 5.25633 13.1323 5.23987 13.0069C5.23372 12.9395 5.22817 12.8734 5.22273 12.8085C5.21437 12.7087 5.20625 12.6118 5.19653 12.5173C5.1857 12.3691 5.1779 12.2274 5.17573 12.0974V11.7715C5.17602 11.7375 5.17625 11.7046 5.17647 11.6726C5.17723 11.5615 5.1779 11.4626 5.18093 11.3767C5.17746 11.3026 5.17934 11.2283 5.18657 11.1544C5.1961 11.0959 5.19567 11.0743 5.18657 11.0929C5.19307 11.0439 5.19307 11.0318 5.18657 11.053C5.18452 11.0597 5.18162 11.0698 5.17772 11.0834C5.16923 11.113 5.15604 11.1589 5.13673 11.2216C5.12766 11.2558 5.11669 11.2932 5.10468 11.3341C5.07998 11.4183 5.05089 11.5175 5.02493 11.6341C5.01998 11.6568 5.01481 11.6794 5.00959 11.7022C4.99018 11.7871 4.97015 11.8747 4.9582 11.9782C4.95137 12.0373 4.94182 12.0986 4.93203 12.1614C4.92009 12.2381 4.9078 12.317 4.8997 12.3968C4.88497 12.542 4.87197 12.7001 4.86547 12.8644C4.8614 12.9671 4.86039 13.0745 4.85935 13.1846C4.85873 13.2503 4.8581 13.3171 4.8568 13.3844C4.85795 13.41 4.85904 13.4356 4.86013 13.4612C4.86686 13.6194 4.87368 13.7795 4.89493 13.9477C4.9018 14.002 4.90819 14.0567 4.91463 14.1118C4.93136 14.2548 4.94838 14.4003 4.97467 14.5483C5.01367 14.7806 5.07303 15.0159 5.1389 15.2572C5.1662 15.3565 5.1987 15.457 5.23293 15.5606C5.22818 15.5506 5.22356 15.5405 5.21914 15.5308C5.2155 15.5229 5.212 15.5152 5.20867 15.5081C5.17772 15.4178 5.14519 15.3285 5.1132 15.2407C5.09503 15.1908 5.07703 15.1414 5.0596 15.0926C4.9946 14.8997 4.93827 14.7104 4.88627 14.5227C4.85463 14.4179 4.82863 14.3108 4.80523 14.2068C4.75112 13.9803 4.71147 13.7544 4.67383 13.54C4.66777 13.5054 4.66175 13.4712 4.65573 13.4372C4.63103 13.2899 4.6124 13.1478 4.59637 13.0108C4.59147 12.9496 4.58699 12.8896 4.58258 12.8308C4.57334 12.7073 4.56448 12.5888 4.55303 12.4744C4.54567 12.3062 4.5409 12.1537 4.53657 12.0029C4.53743 11.8768 4.53873 11.7581 4.5435 11.6441C4.54263 11.4816 4.54783 11.3343 4.5552 11.2147C4.55453 11.1338 4.55843 11.0529 4.5669 10.9724C4.57817 10.8923 4.58293 10.8546 4.57557 10.8546C4.57794 10.8318 4.57987 10.814 4.58128 10.8008C4.58426 10.7733 4.58499 10.7666 4.58293 10.7783C4.58097 10.7895 4.57154 10.8195 4.55677 10.8665C4.54875 10.892 4.53916 10.9225 4.52833 10.9577C4.51865 10.9926 4.50641 11.0312 4.49295 11.0737C4.46244 11.1699 4.42569 11.2859 4.39833 11.4227C4.39121 11.4582 4.38329 11.4946 4.37514 11.5321C4.35701 11.6154 4.33771 11.7041 4.32337 11.8001C4.3153 11.854 4.30705 11.9098 4.29855 11.9673C4.28511 12.0581 4.27106 12.153 4.2562 12.2512L4.25456 12.2685C4.23986 12.4234 4.22425 12.5877 4.2159 12.7578C4.20637 12.9411 4.19987 13.1257 4.20637 13.3259C4.20767 13.366 4.20871 13.4064 4.20976 13.4471C4.21394 13.6098 4.21825 13.7769 4.23973 13.9447C4.24752 14.0055 4.25484 14.0671 4.26224 14.1295C4.28037 14.2824 4.29901 14.4396 4.3264 14.599C4.37053 14.8653 4.42838 15.1291 4.49973 15.3894C4.5344 15.5138 4.57427 15.6438 4.6176 15.7738C4.6111 15.7573 4.60417 15.7404 4.59767 15.7248C4.54177 15.5744 4.48933 15.4249 4.43777 15.2741C4.36973 15.0679 4.3056 14.862 4.25143 14.6588C4.21807 14.5435 4.18903 14.4291 4.1678 14.3156C4.09847 14.03 4.05167 13.7458 4.0118 13.4784C3.9898 13.3502 3.97489 13.2269 3.96036 13.1067C3.95658 13.0754 3.95282 13.0443 3.94897 13.0134C3.93893 12.8819 3.92962 12.7547 3.92056 12.6309C3.91553 12.5622 3.91058 12.4946 3.90563 12.428C3.9037 12.3476 3.90151 12.2689 3.89936 12.1919C3.8967 12.0964 3.89412 12.0036 3.8922 11.9136C3.89361 11.8008 3.89674 11.6925 3.89973 11.5894C3.90041 11.5657 3.90109 11.5424 3.90173 11.5193C3.90823 11.3442 3.9143 11.1848 3.92383 11.0509C3.92443 11.0405 3.92501 11.0304 3.92558 11.0205C3.93119 10.9226 3.93566 10.8444 3.9455 10.7865C3.95535 10.7301 3.96143 10.6731 3.9637 10.6158C3.97275 10.5792 3.97726 10.5417 3.97713 10.504C3.97431 10.5098 3.96961 10.5255 3.96203 10.5507C3.95216 10.5835 3.93741 10.6326 3.9156 10.6973C3.90504 10.7358 3.89199 10.7784 3.87765 10.8253C3.8449 10.9323 3.80541 11.0613 3.77347 11.2138C3.7671 11.2414 3.76033 11.2697 3.75341 11.2985C3.72973 11.3974 3.70424 11.5038 3.6868 11.6185C3.67914 11.6689 3.67014 11.7216 3.66085 11.7759C3.6428 11.8815 3.6237 11.9933 3.6114 12.106C3.59277 12.2768 3.57457 12.4631 3.56373 12.6559C3.5529 12.8488 3.54987 13.0546 3.54987 13.2713C3.55052 13.3005 3.5511 13.3299 3.55168 13.3595C3.55536 13.5459 3.55918 13.7396 3.58237 13.9386C3.59043 14.0078 3.59732 14.0775 3.60426 14.1477C3.62044 14.3114 3.63688 14.4778 3.66903 14.6458C3.71521 14.941 3.77829 15.2332 3.85797 15.5211C3.88697 15.6281 3.92113 15.7389 3.95513 15.8491C3.96837 15.8921 3.98159 15.9349 3.99447 15.9774C3.99399 15.9718 3.99147 15.9668 3.98878 15.9614C3.98652 15.9569 3.98415 15.9522 3.98277 15.9467C3.94944 15.8554 3.91802 15.7638 3.88676 15.6726C3.86233 15.6013 3.83799 15.5304 3.8129 15.46C3.74097 15.236 3.6699 15.0124 3.61487 14.7957C3.5802 14.6705 3.55203 14.5483 3.5256 14.4244C3.45367 14.1128 3.40297 13.8077 3.3631 13.5144C3.33363 13.3441 3.31457 13.1772 3.29853 13.0134C3.29391 12.9354 3.28841 12.8582 3.28299 12.7821C3.27316 12.6442 3.2636 12.5099 3.25997 12.3812C3.25433 12.1814 3.24957 11.9934 3.24957 11.8179C3.25039 11.7915 3.25117 11.7655 3.25193 11.7398C3.25558 11.617 3.25902 11.5014 3.2669 11.391C3.27167 11.2051 3.2799 11.0353 3.2942 10.8866C3.3007 10.7709 3.3072 10.6765 3.3189 10.6037C3.32253 10.5782 3.32602 10.5547 3.32924 10.533C3.33985 10.4615 3.3475 10.4098 3.3475 10.3766C3.3572 10.3269 3.36415 10.2767 3.3683 10.2262C3.36613 10.2358 3.3449 10.3094 3.30417 10.4334C3.29258 10.474 3.27813 10.5191 3.26219 10.5687C3.22445 10.6863 3.17835 10.83 3.1421 11.0036C3.13339 11.0458 3.12373 11.0891 3.11373 11.134C3.09288 11.2276 3.07056 11.3277 3.0524 11.437C3.04417 11.4865 3.03561 11.5371 3.02685 11.589C3.00703 11.7064 2.98617 11.8299 2.96573 11.96C2.96154 12.0036 2.95723 12.0479 2.95284 12.0929C2.93865 12.2386 2.92374 12.3917 2.90983 12.5519C2.9031 12.6768 2.90008 12.8059 2.89698 12.9385C2.8949 13.0276 2.89278 13.1182 2.88947 13.2102C2.89178 13.2721 2.89339 13.3348 2.89501 13.3981C2.89945 13.5717 2.90401 13.7499 2.9237 13.9312C2.9301 13.9902 2.93618 14.0499 2.94232 14.1101C2.96194 14.3026 2.98213 14.5006 3.01513 14.6987C3.06382 15.02 3.13095 15.3383 3.2162 15.652C3.263 15.8245 3.3189 16.0008 3.3748 16.1768C3.37256 16.1735 3.37095 16.1698 3.37003 16.1659C3.32717 16.0469 3.28575 15.9266 3.24477 15.8076C3.22608 15.7534 3.20749 15.6994 3.1889 15.6459C3.1122 15.4033 3.0381 15.1649 2.97657 14.9309C2.97293 14.9165 2.96929 14.902 2.96565 14.8875C2.93585 14.7691 2.90618 14.6513 2.8834 14.5327C2.80887 14.1995 2.75687 13.8701 2.71353 13.5564C2.68753 13.3727 2.66803 13.1924 2.6507 13.0191C2.64512 12.9233 2.64003 12.8296 2.63504 12.7376C2.62762 12.601 2.62042 12.4682 2.61213 12.3387C2.61039 12.2432 2.60925 12.1494 2.60814 12.0577C2.60677 11.9442 2.60543 11.8339 2.60303 11.7277C2.60605 11.6653 2.60894 11.604 2.61178 11.5438C2.61627 11.4486 2.62062 11.3563 2.62513 11.2671C2.63727 11.0665 2.64853 10.8832 2.66847 10.7233C2.6754 10.6032 2.68623 10.5018 2.6988 10.4178C2.7183 10.2904 2.73217 10.1963 2.73867 10.1365C2.75094 10.0746 2.75948 10.0119 2.76423 9.9489C2.7638 9.95627 2.73953 10.0356 2.6962 10.1729C2.62653 10.3768 2.56723 10.584 2.51853 10.7939C2.51029 10.8297 2.50133 10.8666 2.49211 10.9045C2.46596 11.0121 2.43764 11.1286 2.41713 11.2558C2.40824 11.311 2.39828 11.3675 2.38808 11.4255C2.36647 11.5483 2.34377 11.6772 2.32787 11.8118C2.32353 11.8485 2.31901 11.8857 2.31442 11.9235C2.29422 12.0898 2.27279 12.2663 2.26113 12.4471C2.25174 12.5928 2.24852 12.7462 2.2452 12.9041C2.24347 12.9866 2.24171 13.0703 2.23903 13.1547C2.241 13.217 2.24261 13.2802 2.24424 13.344C2.24906 13.5329 2.25403 13.7279 2.26893 13.9265C2.27548 13.9884 2.28156 14.0507 2.28767 14.1134C2.30787 14.3206 2.32848 14.532 2.36773 14.7472C2.41923 15.0954 2.49158 15.4403 2.5844 15.7798C2.6351 15.9792 2.69533 16.1772 2.76207 16.377L2.75045 16.3441C2.68867 16.1694 2.6286 15.9995 2.57313 15.8262C2.4895 15.5714 2.41497 15.3153 2.34867 15.0631C2.31183 14.9249 2.2789 14.7845 2.25203 14.6415C2.17143 14.2848 2.11467 13.9351 2.07133 13.5984C2.04663 13.4034 2.02497 13.2119 2.00893 13.0234C2.00762 12.9977 2.00631 12.9721 2.00501 12.9467C1.99346 12.7204 1.98235 12.503 1.9695 12.2954V11.6402C1.97211 11.5893 1.97448 11.5395 1.9768 11.4906C1.98255 11.3694 1.98803 11.254 1.99637 11.1419L1.99671 11.1364C2.01001 10.9245 2.02213 10.7314 2.04447 10.5634C2.0553 10.4394 2.0657 10.3281 2.08043 10.2336C2.09061 10.1529 2.10222 10.082 2.11223 10.0209C2.11969 9.97531 2.12626 9.93515 2.1307 9.90037C2.15282 9.76532 2.16278 9.68831 2.1643 9.67649L2.1645 9.67503C2.16407 9.67893 2.1385 9.7643 2.08997 9.9125C2.07661 9.95887 2.05975 10.011 2.04098 10.0689C1.99645 10.2065 1.94121 10.3771 1.8967 10.5829C1.88809 10.6194 1.87883 10.657 1.86931 10.6957C1.8405 10.8128 1.80922 10.94 1.78577 11.0764C1.75457 11.258 1.72293 11.4547 1.68913 11.6675C1.67855 11.7618 1.6683 11.8585 1.65779 11.9578C1.64464 12.0819 1.63107 12.21 1.6159 12.3422C1.60382 12.5244 1.59936 12.7123 1.59475 12.907C1.59324 12.9706 1.59171 13.035 1.5899 13.1001C1.59016 13.1162 1.59043 13.1323 1.59069 13.1484C1.59472 13.3965 1.59894 13.6565 1.61807 13.9234C1.62445 13.9878 1.63031 14.0526 1.63622 14.1179C1.65639 14.3407 1.677 14.5684 1.7199 14.7996C1.77164 15.1763 1.84778 15.5491 1.94783 15.9159C2.0033 16.1295 2.07047 16.344 2.13763 16.5572C1.92573 15.9462 1.72943 15.3435 1.6146 14.7502C1.49481 14.1815 1.40972 13.606 1.3598 13.0269C1.35443 12.881 1.34769 12.7385 1.34111 12.5996C1.33548 12.4805 1.32997 12.3642 1.32557 12.2508V11.5462C1.35027 11.105 1.37497 10.7159 1.4183 10.3996C1.43876 10.1524 1.47219 9.95041 1.49852 9.79136C1.50621 9.74489 1.51329 9.70209 1.51927 9.6629C1.5457 9.48957 1.56 9.39943 1.56 9.39943C1.56 9.39943 1.52793 9.48393 1.48027 9.65033C1.4655 9.70189 1.44607 9.76027 1.4243 9.82568C1.37582 9.97138 1.31572 10.1519 1.26967 10.3697C1.25537 10.4346 1.239 10.5024 1.22191 10.5733C1.19757 10.6741 1.17175 10.7811 1.14833 10.8944C1.1395 10.9483 1.13053 11.0033 1.12136 11.0596C1.09769 11.205 1.07268 11.3585 1.0452 11.5206C1.03686 11.5987 1.02741 11.6785 1.01773 11.7601C0.999754 11.9119 0.981004 12.0701 0.9672 12.236C0.954672 12.3866 0.950139 12.5425 0.945502 12.702C0.94228 12.8128 0.939007 12.9253 0.932967 13.039C0.934819 13.1096 0.936343 13.181 0.937883 13.2532C0.942465 13.4678 0.947187 13.689 0.961133 13.9161C0.969808 13.9984 0.977473 14.0819 0.985218 14.1663C1.00571 14.3896 1.02677 14.6189 1.0686 14.8495C1.15397 15.4895 1.3247 16.1525 1.53617 16.8229C1.77363 17.4898 2.04533 18.1714 2.4128 18.8184L2.43713 18.8602C2.6169 19.1698 2.7954 19.4772 3.00603 19.7778L3.33493 20.244L3.67857 20.6774L3.8636 20.901L4.06077 21.1033L4.46333 21.5068C4.47734 21.5212 4.49135 21.5357 4.50536 21.5502C4.75147 21.8043 4.99968 22.0607 5.28667 22.2686C5.5757 22.4995 5.86517 22.7296 6.15333 22.9463C6.36255 23.0722 6.56983 23.1975 6.77401 23.3209C6.8756 23.3823 6.97642 23.4432 7.07633 23.5036C7.32637 23.6707 7.59687 23.7883 7.86187 23.9034C7.91009 23.9244 7.95813 23.9453 8.00583 23.9664C8.11968 24.0124 8.23016 24.0631 8.33937 24.1133C8.53361 24.2026 8.72385 24.2901 8.9219 24.3455C9.06155 24.3866 9.19865 24.4289 9.33365 24.4706C9.801 24.6149 10.243 24.7513 10.6778 24.8014C10.8816 24.8381 11.0772 24.8713 11.2673 24.9036C11.335 24.9151 11.4021 24.9265 11.4686 24.9379C11.6453 24.9565 11.8171 24.9633 11.9804 24.9697C12.053 24.9725 12.1238 24.9753 12.1927 24.9791ZM13 11.8182C13.6527 11.8182 14.1818 12.3473 14.1818 13C14.1818 13.6527 13.6527 14.1818 13 14.1818C12.3473 14.1818 11.8182 13.6527 11.8182 13C11.8182 12.3473 12.3473 11.8182 13 11.8182Z" fill="white"/>
</g>
<defs>
<clipPath id="clip0_10_834">
<rect width="26" height="26" fill="white"/>
</clipPath>
</defs>
</svg>
