<svg enable-background="new 0 0 1200 1200" viewBox="0 0 1200 1200" xmlns="http://www.w3.org/2000/svg"><path d="m0 0h1200v1200h-1200z" fill="#c5c09d"/><path d="m0 96.3c22.3-40.6 55.7-74 96.3-96.3h-96.3z" fill="#776127"/><path d="m174.5 6.6h250.9c92.8 0 167.9 75.2 167.9 167.9v250.9c0 92.8-75.2 167.9-167.9 167.9h-250.9c-92.8 0-167.9-75.2-167.9-167.9v-250.8c0-92.7 75.2-168 167.9-168z" fill="#575c3d"/><circle cx="299.9" cy="300" fill="#839561" r="293.4"/><path d="m269.6 6.6-263 263.1v59.2l264.4 264.4h58.7l263.6-263.5v-61l-262.1-262.2z" fill="#c5c09d"/><path d="m281.3 6.6-274.7 274.7v35.9l276.1 276.1h35.4l275.2-275.2v-37.6l-273.8-273.9z" fill="#76674b"/><path d="m146.4 145.2h308.1v308.1h-308.1z" fill="#8e8a5f" transform="matrix(.7071 -.7071 .7071 .7071 -123.6282 300.0811)"/><path d="m596.1 309.8v-19.6h-120.5c-91.6 0-165.8-74.2-165.8-165.8v-120.6h-19.6v120.4c0 91.6-74.2 165.8-165.8 165.8h-120.6v19.6h120.4c91.6 0 165.8 74.2 165.8 165.8v120.6h19.6v-120.4c0-91.6 74.2-165.8 165.8-165.8z" fill="#c5c09d"/><path d="m299.9 203.7c22.3 40.7 55.7 74.1 96.3 96.3-40.7 22.3-74.2 55.7-96.3 96.3-22.2-40.6-55.6-74.1-96.3-96.3 40.7-22.3 74.1-55.6 96.3-96.3z" fill="#776127"/><path d="m1200 96.3v-96.3h-96.3c40.7 22.3 74 55.7 96.3 96.3z" fill="#776127"/><path d="m774.3 6.6h250.9c92.8 0 167.9 75.2 167.9 167.9v250.9c0 92.8-75.2 167.9-167.9 167.9h-250.9c-92.8 0-167.9-75.2-167.9-167.9v-250.8c0-92.7 75.2-168 167.9-168z" fill="#575c3d"/><circle cx="899.7" cy="300" fill="#839561" r="293.4"/><path d="m869.4 6.6-263 263.1v59.2l264.4 264.4h58.7l263.6-263.5v-61l-262.1-262.2z" fill="#c5c09d"/><path d="m881.1 6.6-274.7 274.7v35.9l276.1 276.1h35.4l275.2-275.2v-37.6l-273.8-273.9z" fill="#76674b"/><path d="m746.2 145.2h308.1v308.1h-308.1z" fill="#8e8a5f" transform="matrix(.7071 -.7071 .7071 .7071 52.0516 724.2097)"/><path d="m1195.9 309.8v-19.6h-120.4c-91.6 0-165.8-74.2-165.8-165.8v-120.6h-19.7v120.4c0 91.6-74.2 165.8-165.8 165.8h-120.5v19.6h120.4c91.6 0 165.8 74.2 165.8 165.8v120.6h19.6v-120.4c0-91.6 74.2-165.8 165.8-165.8z" fill="#c5c09d"/><path d="m899.7 203.7c22.3 40.7 55.7 74.1 96.3 96.3-40.7 22.3-74.2 55.7-96.3 96.3-22.2-40.6-55.6-74.1-96.3-96.3 40.7-22.3 74.1-55.6 96.3-96.3z" fill="#776127"/><path d="m599.9 1200v-293.5-13-293.4h-293.3-13.2-293.4v293.4 13 293.5h293.4 13.2z" fill="#c5c09d"/><path d="m96.2 1200c.1 0 .2-.1.2-.1-40.6-22.3-74.1-55.7-96.3-96.3v96.4z" fill="#776127"/><path d="m174.4 606.6h250.9c92.8 0 167.9 75.2 167.9 167.9v250.9c0 92.8-75.2 167.9-167.9 167.9h-250.9c-92.8 0-167.9-75.2-167.9-167.9v-250.8c0-92.7 75.2-168 167.9-168z" fill="#575c3d"/><circle cx="299.8" cy="900" fill="#839561" r="293.4"/><path d="m269.5 606.6-263 263.1v59.2l264.4 264.4h58.7l263.6-263.5v-61l-262.1-262.2z" fill="#c5c09d"/><path d="m281.2 606.6-274.7 274.7v35.9l276.1 276.1h35.4l275.2-275.2v-37.6l-273.8-273.9z" fill="#76674b"/><path d="m146.3 745.2h308.1v308.1h-308.1z" fill="#8e8a5f" transform="matrix(.7071 -.7071 .7071 .7071 -547.9216 475.7464)"/><path d="m596 909.8v-19.6h-120.5c-91.6 0-165.8-74.2-165.8-165.8v-120.6h-19.6v120.4c0 91.6-74.2 165.8-165.8 165.8h-120.6v19.6h120.4c91.6 0 165.8 74.2 165.8 165.8v120.6h19.6v-120.3c0-91.6 74.2-165.8 165.8-165.8h120.7z" fill="#c5c09d"/><path d="m299.8 803.7c22.3 40.7 55.7 74.1 96.3 96.3-40.7 22.3-74.2 55.7-96.3 96.3-22.2-40.6-55.6-74.1-96.3-96.3 40.7-22.3 74.1-55.6 96.3-96.3z" fill="#776127"/><path d="m1103.7 1199.9c.1 0 .2.1.2.1h96.2v-96.4c-22.4 40.6-55.7 74-96.4 96.3z" fill="#776127"/><path d="m774.3 606.6h250.9c92.8 0 167.9 75.2 167.9 167.9v250.9c0 92.8-75.2 167.9-167.9 167.9h-250.9c-92.8 0-167.9-75.2-167.9-167.9v-250.8c0-92.7 75.2-168 167.9-168z" fill="#575c3d"/><circle cx="899.7" cy="900" fill="#839561" r="293.4"/><path d="m869.4 606.6-263 263.1v59.2l264.4 264.4h58.7l263.6-263.5v-61l-262.1-262.2z" fill="#c5c09d"/><path d="m881.1 606.6-274.7 274.7v35.9l276.1 276.1h35.4l275.2-275.2v-37.6l-273.8-273.9z" fill="#76674b"/><path d="m746.2 745.2h308.1v308.1h-308.1z" fill="#8e8a5f" transform="matrix(.7071 -.7071 .7071 .7071 -372.2125 899.9456)"/><path d="m1195.9 909.8v-19.6h-120.4c-91.6 0-165.8-74.2-165.8-165.8v-120.6h-19.7v120.4c0 91.6-74.2 165.8-165.8 165.8h-120.5v19.6h120.4c91.6 0 165.8 74.2 165.8 165.8v120.6h19.6v-120.3c0-91.6 74.2-165.8 165.8-165.8h120.6z" fill="#c5c09d"/><g fill="#776127"><path d="m899.7 803.7c22.3 40.7 55.7 74.1 96.3 96.3-40.7 22.3-74.2 55.7-96.3 96.3-22.2-40.6-55.6-74.1-96.3-96.3 40.7-22.3 74.1-55.6 96.3-96.3z"/><path d="m696.3 1200c-40.7-22.3-74.1-55.7-96.3-96.3-22.2 40.6-55.6 74-96.3 96.3z"/><path d="m503.7 0c40.7 22.3 74.1 55.7 96.3 96.3 22.2-40.6 55.6-74 96.3-96.3z"/><path d="m600 503.7c22.3 40.7 55.7 74.1 96.3 96.3-40.7 22.3-74.2 55.7-96.3 96.3-22.2-40.6-55.6-74.1-96.3-96.3 40.7-22.3 74.1-55.6 96.3-96.3z"/><path d="m1200 503.7c-22.3 40.7-55.7 74.1-96.3 96.3 40.6 22.2 74 55.6 96.3 96.3z"/><path d="m0 696.3c22.3-40.7 55.7-74.1 96.3-96.3-40.6-22.2-74-55.6-96.3-96.3z"/></g></svg>