<svg enable-background="new 0 0 654.3 654.4" viewBox="0 0 654.3 654.4" xmlns="http://www.w3.org/2000/svg"><path d="m654.5 654.5v-320.2-14.2-320.1h-320-14.4-320.1v320.1 14.2 320.2h320.1 14.4z" fill="#c5c09d"/><path d="m-.1-.1h654.5v654.5h-654.5z" fill="#c5c09d"/><g fill="#776127"><path d="m654.5 105.1v-105.1h-105.1c44.4 24.3 80.8 60.8 105.1 105.1z"/><path d="m0 105.1c24.3-44.3 60.8-80.8 105.1-105.1h-105.1z"/><path d="m549.4 654.4c.1 0 .2.1.2.1h104.9v-105.2c-24.3 44.3-60.7 80.8-105.1 105.1z"/><path d="m104.9 654.5c.1 0 .2-.1.2-.1-44.3-24.3-80.8-60.8-105.1-105.1v105.2z"/></g><path d="m190.3 7.1h273.7c101.2 0 183.2 82 183.2 183.2v273.7c0 101.2-82 183.2-183.2 183.2h-273.7c-101.2 0-183.2-82-183.2-183.2v-273.6c0-101.2 82-183.3 183.2-183.3z" fill="#575c3d"/><circle cx="327.1" cy="327.2" fill="#839561" r="320.1"/><path d="m294 7.1-286.9 287v64.6l288.5 288.5h64l287.6-287.5v-66.5l-286-286.1z" fill="#c5c09d"/><path d="m306.8 7.1-299.7 299.7v39.2l301.2 301.2h38.6l300.3-300.2v-41.1l-298.7-298.8z" fill="#76674b"/><path d="m159.6 158.4h336.1v336.1h-336.1z" fill="#8e8a5f" transform="matrix(.7071 -.7071 .7071 .7071 -134.8604 327.2554)"/><path d="m650.2 337.9v-21.4h-131.4c-99.9 0-180.9-81-180.9-180.9v-131.5h-21.4v131.4c0 99.9-81 180.9-180.9 180.9h-131.5v21.4h131.4c99.9 0 180.9 81 180.9 180.9v131.4h21.4v-131.3c0-99.9 81-180.9 180.9-180.9z" fill="#c5c09d"/><path d="m327.1 222.1c24.3 44.4 60.8 80.8 105.1 105.1-44.4 24.3-80.9 60.8-105.1 105.1-24.2-44.3-60.7-80.8-105.1-105.1 44.4-24.3 80.9-60.7 105.1-105.1z" fill="#776127"/></svg>