<?xml version="1.0" encoding="utf-8"?>
<!-- Generator: Adobe Illustrator 27.1.1, SVG Export Plug-In . SVG Version: 6.00 Build 0)  -->
<svg version="1.1" id="Layer_1" xmlns="http://www.w3.org/2000/svg" xmlns:xlink="http://www.w3.org/1999/xlink" x="0px" y="0px"
	 viewBox="0 0 654.3 654.4" style="enable-background:new 0 0 654.3 654.4;" xml:space="preserve">
<style type="text/css">
	.st0{fill:#C5C09D;}
	.st1{fill:#776127;}
	.st2{fill:#575C3D;}
	.st3{fill:#839561;}
	.st4{fill:#76674B;}
	.st5{fill:#8E8A5F;}
</style>
<polygon class="st0" points="654.5,654.5 654.5,334.3 654.5,320.1 654.5,0 334.5,0 320.1,0 0,0 0,320.1 0,334.3 0,654.5 
	320.1,654.5 334.5,654.5 "/>
<rect x="-0.1" y="-0.1" class="st0" width="654.5" height="654.5"/>
<path class="st1" d="M654.5,105.1C654.5,105.1,654.5,105.1,654.5,105.1l0-105.1H549.4C593.8,24.3,630.2,60.8,654.5,105.1z"/>
<path class="st1" d="M0,105.1C24.3,60.8,60.8,24.3,105.1,0H0V105.1z"/>
<path class="st1" d="M549.4,654.4c0.1,0,0.2,0.1,0.2,0.1h104.9V549.3C630.2,593.6,593.8,630.1,549.4,654.4z"/>
<path class="st1" d="M104.9,654.5c0.1,0,0.2-0.1,0.2-0.1C60.8,630.1,24.3,593.6,0,549.3v105.2H104.9z"/>
<path class="st2" d="M190.3,7.1H464c101.2,0,183.2,82,183.2,183.2V464c0,101.2-82,183.2-183.2,183.2H190.3
	C89.1,647.2,7.1,565.2,7.1,464V190.4C7.1,89.2,89.1,7.1,190.3,7.1z"/>
<circle class="st3" cx="327.1" cy="327.2" r="320.1"/>
<polygon class="st0" points="294,7.1 7.1,294.1 7.1,358.7 295.6,647.2 359.6,647.2 647.2,359.7 647.2,293.2 361.2,7.1 "/>
<polygon class="st4" points="306.8,7.1 7.1,306.8 7.1,346 308.3,647.2 346.9,647.2 647.2,347 647.2,305.9 348.5,7.1 "/>
<rect x="159.6" y="158.4" transform="matrix(0.7071 -0.7071 0.7071 0.7071 -134.8604 327.2554)" class="st5" width="336.1" height="336.1"/>
<path class="st0" d="M650.2,337.9v-21.4H518.8c-99.9,0-180.9-81-180.9-180.9V4.1h-21.4v131.4c0,99.9-81,180.9-180.9,180.9H4.1v21.4
	h131.4c99.9,0,180.9,81,180.9,180.9v131.4h21.4V518.8c0-99.9,81-180.9,180.9-180.9H650.2z"/>
<path class="st1" d="M327.1,222.1L327.1,222.1c24.3,44.4,60.8,80.8,105.1,105.1l0,0l0,0c-44.4,24.3-80.9,60.8-105.1,105.1l0,0l0,0
	C302.9,388,266.4,351.5,222,327.2l0,0l0,0C266.4,302.9,302.9,266.5,327.1,222.1L327.1,222.1L327.1,222.1z"/>
</svg>
