<svg viewBox="0 0 600 161.72" xmlns="http://www.w3.org/2000/svg"><g fill="#fff"><path d="m82 161.72h-36a2.93 2.93 0 0 1 -2.83-2.15l-43.06-155.86a2.93 2.93 0 0 1 2.82-3.71h27a2.93 2.93 0 0 1 2.85 2.24l28.38 116.43a2.93 2.93 0 0 0 5.7 0l28.2-116.43a2.94 2.94 0 0 1 2.85-2.24h27a2.93 2.93 0 0 1 2.83 3.71l-42.91 155.85a2.94 2.94 0 0 1 -2.83 2.16z"/><path d="m155.76 158.78v-155.85a2.93 2.93 0 0 1 2.93-2.93h26a2.93 2.93 0 0 1 2.93 2.93v155.85a2.94 2.94 0 0 1 -2.93 2.94h-26a2.94 2.94 0 0 1 -2.93-2.94z"/><path d="m308.1 160-42.64-91.64a2.93 2.93 0 0 0 -5.59 1.24v89.18a2.94 2.94 0 0 1 -2.93 2.94h-26.23a2.94 2.94 0 0 1 -2.93-2.94v-155.85a2.93 2.93 0 0 1 2.93-2.93h35.34a2.93 2.93 0 0 1 2.68 1.74l40.87 92a2.93 2.93 0 0 0 5.61-1.19v-89.62a2.93 2.93 0 0 1 2.93-2.93h26.22a2.94 2.94 0 0 1 2.94 2.93v155.85a2.94 2.94 0 0 1 -2.94 2.94h-33.6a2.94 2.94 0 0 1 -2.66-1.72z"/><path d="m451.66 113v45.75a2.94 2.94 0 0 1 -2.93 2.94h-27a2.94 2.94 0 0 1 -2.94-2.94v-45.75a3.06 3.06 0 0 0 -.2-1.09l-43.14-107.91a2.93 2.93 0 0 1 2.72-4h26.2a2.93 2.93 0 0 1 2.76 1.93l25.41 70.21a2.93 2.93 0 0 0 5.5 0l26.55-70.24a2.93 2.93 0 0 1 2.75-1.9h26.92a2.93 2.93 0 0 1 2.74 4.06l-45.11 107.84a2.93 2.93 0 0 0 -.23 1.1z"/><path d="m525.71 158.78v-155.85a2.93 2.93 0 0 1 2.93-2.93h26a2.93 2.93 0 0 1 2.93 2.93v127.07a2.93 2.93 0 0 0 2.93 2.93h36.59a2.93 2.93 0 0 1 2.93 2.93v22.94a2.94 2.94 0 0 1 -2.93 2.94h-68.45a2.94 2.94 0 0 1 -2.93-2.96z"/></g></svg>